<svg width="16" height="16" viewBox="0 0 16 16" fill="none" xmlns="http://www.w3.org/2000/svg">
<path d="M16 9.81132V16H12.5561V10.1887C12.5561 8.75472 12.0538 7.77359 10.8341 7.77359C9.90135 7.77359 9.32735 8.45283 9.11211 9.05661C9.04036 9.28302 8.96861 9.58491 8.96861 9.96226V16H5.52466C5.52466 16 5.59641 6.18868 5.52466 5.20755H8.96861V6.71698C9.39911 5.96227 10.2601 4.90566 12.0538 4.90566C14.278 4.90566 16 6.49057 16 9.81132ZM1.93722 0C0.789236 0 0 0.830189 0 1.88679C0 2.9434 0.717488 3.77359 1.86547 3.77359C3.0852 3.77359 3.80269 2.9434 3.80269 1.88679C3.87444 0.754717 3.15695 0 1.93722 0ZM0.215246 16H3.65919V5.20755H0.215246V16Z" fill="#B2B2B2"/>
</svg>
