<svg width="18" height="12" viewBox="0 0 18 12" fill="none" xmlns="http://www.w3.org/2000/svg">
<path d="M7.63393 5.0072C7.95536 4.48921 8.11607 3.88489 8.11607 3.19424C8.11607 1.38129 6.66964 0 5.0625 0H0.401786C0.160714 0 0 0.172662 0 0.431655V11.3957C0 11.6547 0.160714 11.8273 0.401786 11.8273H5.54464C7.47321 11.8273 9.08036 10.187 9.08036 8.1151C9.08036 6.82014 8.51786 5.69784 7.63393 5.0072ZM2.00893 2.2446H5.0625C5.625 2.2446 6.02678 2.76259 6.02678 3.28058C6.02678 3.88489 5.54464 4.31655 5.0625 4.31655H2.00893V2.2446ZM5.625 9.66906H2.00893V6.56116H5.625C6.42857 6.56116 7.07143 7.25179 7.07143 8.1151C7.07143 8.97841 6.42857 9.66906 5.625 9.66906Z" fill="#B2B2B2"/>
<path d="M18 7.33814C18 4.74821 16.1518 2.67626 13.8214 2.67626C11.4911 2.67626 9.64286 4.74821 9.64286 7.33814C9.64286 9.92806 11.4911 12 13.8214 12C15.1875 12 16.4732 11.223 17.2768 9.92806C17.3571 9.7554 17.4375 9.58273 17.5179 9.41007C17.5982 9.32374 17.5179 9.15109 17.3571 9.15109H15.3482C15.2679 9.15109 15.2679 9.15108 15.1875 9.23741C14.7857 9.66907 14.3036 9.84173 13.8214 9.84173C12.7768 9.84173 11.9732 9.06475 11.7321 7.94245H17.5982C17.8393 7.94245 18 7.76979 18 7.51079V7.33814ZM13.8214 4.92087C14.5446 4.92087 15.1875 5.35252 15.5893 6.04317H12.0536C12.375 5.35252 13.0982 4.92087 13.8214 4.92087Z" fill="#B2B2B2"/>
<path d="M15.5089 2.15829H11.8125C11.6518 2.15829 11.4911 1.98562 11.4911 1.81296V0.863322C11.4911 0.69066 11.6518 0.517997 11.8125 0.517997H15.5089C15.6696 0.517997 15.8304 0.69066 15.8304 0.863322V1.89929C15.8304 1.98562 15.75 2.15829 15.5089 2.15829Z" fill="#B2B2B2"/>
</svg>
